<?xml version="1.0" encoding="utf-8"?>
<!-- Generator: Adobe Illustrator 27.2.0, SVG Export Plug-In . SVG Version: 6.00 Build 0)  -->
<svg version="1.1" id="Ebene_1" xmlns="http://www.w3.org/2000/svg" xmlns:xlink="http://www.w3.org/1999/xlink" x="0px" y="0px"
	 viewBox="0 0 219 126" style="enable-background:new 0 0 219 126;" xml:space="preserve">
<style type="text/css">
	.st0{fill-rule:evenodd;clip-rule:evenodd;fill:url(#SVGID_1_);}
	.st1{fill:#FFFFFF;}
</style>
<linearGradient id="SVGID_1_" gradientUnits="userSpaceOnUse" x1="8.6255" y1="59.0529" x2="104.4794" y2="59.0529">
	<stop  offset="9.729730e-02" style="stop-color:#D3C686"/>
	<stop  offset="0.8757" style="stop-color:#B49B21"/>
</linearGradient>
<path class="st0" d="M57.4,10.4c22.5,0,41.5,15.3,47.1,36C98,31.4,83.2,20.9,66,20.9C42.8,20.9,24,39.8,24,63.2
	c0,23.4,18.8,42.3,41.9,42.3c2.9,0,5.8-0.3,8.5-0.9c-5.3,2-11.1,3.1-17.1,3.1c-26.9,0-48.8-21.8-48.8-48.7S30.5,10.4,57.4,10.4
	L57.4,10.4z M63.6,30.5c10.1,0,19.2,4.6,25.2,11.9c-5.1-3.8-11.5-6-18.4-6c-17.1,0-30.9,13.7-30.9,30.6c0,13.4,8.7,24.7,20.7,28.9
	c-16.5-1.7-29.4-15.6-29.4-32.6C30.9,45.1,45.5,30.5,63.6,30.5L63.6,30.5z"/>
<path class="st1" d="M196.8,48.2l18.1,39.9h-5.5l-4.5-9.8h-16.3l-4.4,9.8h-5.5L196.8,48.2L196.8,48.2z M196.8,60.3l-6.2,13.6H203
	L196.8,60.3L196.8,60.3z M90.7,49.7h5.3v33.2h12.5v5.3H90.7V49.7L90.7,49.7z M59.8,49.7h7.7c4.4,0,7.9,1,10.6,3.1c2.7,2.1,4,4.7,4,8
	c0,3.3-1.4,6.1-4.2,8.3c-2.8,2.2-7.1,3.3-12.8,3.3v15.8h-5.3V49.7L59.8,49.7z M65.1,54.3v13.5c3.9,0,6.8-0.6,8.7-1.7
	c1.9-1.1,2.8-2.8,2.8-5.2c0-1.8-0.7-3.3-2.1-4.6C73.1,54.9,69.9,54.3,65.1,54.3L65.1,54.3z M150.2,49.7h26l-18.4,33.2h18v5.3h-26.5
	L167.6,55h-17.4V49.7L150.2,49.7z M128.2,48.2l18.1,39.9h-5.5l-4.5-9.8h-16.3l-4.4,9.8h-5.5L128.2,48.2L128.2,48.2z M128.3,60.3
	l-6.2,13.6h12.4L128.3,60.3L128.3,60.3z"/>
<g>
	<path class="st1" d="M143,93l-1.7,1.6c-0.4-0.6-0.8-1.1-1.3-1.4c-0.5-0.3-1.1-0.5-1.7-0.5c-0.9,0-1.7,0.4-2.4,1.1
		c-0.7,0.7-1,1.5-1,2.5c0,1,0.3,1.9,1,2.6c0.7,0.7,1.5,1.1,2.5,1.1c0.5,0,1-0.1,1.5-0.4c0.5-0.3,0.9-0.8,1.2-1.5h-2.8v-2.3h5.5v1.5
		c0,0.8-0.3,1.6-0.8,2.6c-0.5,0.9-1.3,1.6-2.2,2c-0.9,0.4-1.8,0.6-2.7,0.6c-1.6,0-3-0.6-4.2-1.8c-1.1-1.2-1.7-2.7-1.7-4.4
		c0-1.7,0.6-3.1,1.7-4.3c1.2-1.2,2.6-1.8,4.2-1.8C140.2,90.2,141.8,91.1,143,93L143,93z"/>
	<path class="st1" d="M151.2,97.3c0.9-0.4,1.4-0.9,1.8-1.6c0.3-0.7,0.5-1.3,0.5-1.9c0-1.1-0.3-1.9-1-2.6c-0.7-0.6-1.6-0.9-2.8-0.9
		h-3.9v11.9h2.6v-4.6h0.3l3.1,4.6h2.9L151.2,97.3z M148.7,95.6h-0.6v-3.1h0.6c0.6,0,1.1,0.1,1.5,0.4c0.4,0.3,0.5,0.6,0.5,1.1
		C150.8,95.1,150.1,95.6,148.7,95.6z"/>
	<path class="st1" d="M165.6,92c-1.2-1.2-2.6-1.7-4.4-1.7c-1.6,0-3,0.6-4.1,1.7c-1.2,1.2-1.7,2.6-1.7,4.4c0,1.8,0.6,3.2,1.7,4.4
		c1.1,1.1,2.6,1.7,4.3,1.7c1.7,0,3.2-0.6,4.3-1.7c1.1-1.2,1.7-2.6,1.7-4.4C167.3,94.6,166.8,93.1,165.6,92z M163.7,99.1
		c-0.6,0.7-1.4,1-2.4,1c-1,0-1.7-0.3-2.4-1c-0.6-0.7-0.9-1.6-0.9-2.6c0-1.1,0.3-2,0.9-2.7c0.6-0.7,1.4-1.1,2.4-1c1,0,1.8,0.4,2.4,1
		c0.6,0.7,0.9,1.6,0.9,2.7C164.7,97.5,164.4,98.4,163.7,99.1z"/>
	<path class="st1" d="M169.5,90.4h2.5v7.3c0,0.7,0.2,1.2,0.6,1.6c0.4,0.4,0.9,0.6,1.5,0.6c0.7,0,1.3-0.2,1.6-0.6
		c0.4-0.4,0.6-1,0.6-1.8v-7.2h2.5v7.7c0,0.7-0.2,1.4-0.5,2.1c-0.4,0.7-0.9,1.3-1.6,1.7c-0.7,0.4-1.6,0.6-2.5,0.6
		c-1.6,0-2.8-0.5-3.6-1.4c-0.8-0.9-1.1-1.9-1.1-2.9V90.4L169.5,90.4z"/>
	<path class="st1" d="M188.1,91.3c-0.7-0.6-1.6-1-2.7-1h-4.1v11.9h2.6v-4.6l1.5,0c0.5,0,1-0.2,1.7-0.5c0.7-0.3,1.2-0.8,1.5-1.4
		c0.3-0.6,0.5-1.3,0.5-2C189.1,92.8,188.8,92,188.1,91.3z M186,95.1c-0.3,0.3-0.7,0.5-1.1,0.5h-1v-3.1l0.6,0c0.6,0,1.1,0.1,1.5,0.4
		s0.5,0.6,0.5,1.1C186.4,94.4,186.3,94.8,186,95.1z"/>
	<polygon class="st1" points="81.2,90.4 83.7,90.4 83.7,95 88,95 88,90.4 90.6,90.4 90.6,102.3 88,102.3 88,97.6 83.7,97.6 
		83.7,102.3 81.2,102.3 81.2,90.4 	"/>
	<path class="st1" d="M102.9,92c-1.2-1.2-2.6-1.7-4.4-1.7c-1.6,0-3,0.6-4.1,1.7c-1.2,1.2-1.7,2.6-1.7,4.4c0,1.8,0.6,3.2,1.7,4.4
		c1.1,1.1,2.6,1.7,4.3,1.7c1.7,0,3.2-0.6,4.3-1.7c1.1-1.2,1.7-2.6,1.7-4.4C104.7,94.6,104.1,93.1,102.9,92z M101.1,99.1
		c-0.6,0.7-1.4,1-2.4,1c-1,0-1.7-0.3-2.4-1c-0.6-0.7-0.9-1.6-0.9-2.6c0-1.1,0.3-2,0.9-2.7c0.6-0.7,1.4-1.1,2.4-1c1,0,1.8,0.4,2.4,1
		c0.6,0.7,0.9,1.6,0.9,2.7C102,97.5,101.7,98.4,101.1,99.1z"/>
	<polygon class="st1" points="105.8,90.4 113.8,90.4 113.8,92.9 111.1,92.9 111.1,102.3 108.5,102.3 108.5,92.9 105.8,92.9 
		105.8,90.4 	"/>
	<polygon class="st1" points="115.5,90.4 122.3,90.4 122.3,92.7 118.1,92.7 118.1,95.1 122.3,95.1 122.3,97.5 118.1,97.5 
		118.1,99.9 122.3,99.9 122.3,102.3 115.5,102.3 115.5,90.4 	"/>
	<polygon class="st1" points="124.5,90.4 127.1,90.4 127.1,99.7 130.6,99.7 130.6,102.3 124.5,102.3 124.5,90.4 	"/>
</g>
</svg>
